<svg width="460" height="326" fill="none" xmlns="http://www.w3.org/2000/svg"><g filter="url(#filter0_d_3905_27504)"><rect x="11" y="64.936" width="238.333" height="106.713" rx="13.014" fill="#fff"/><rect x="11.5" y="65.436" width="237.333" height="105.713" rx="12.514" stroke="#EEF3FD"/></g><rect opacity=".1" x="24" y="132.449" width="201.5" height="8.711" rx="4.356" fill="#457CE9"/><rect opacity=".1" x="24" y="147.693" width="164.667" height="8.711" rx="4.356" fill="#457CE9"/><path d="M91.41 86.4l-2.465 9.884h-1.96L84.9 88.64l-2.087 7.644h-1.96L78.39 86.4h1.75l1.707 8.036 2.17-8.036h1.764l2.17 8.036L89.66 86.4h1.75zm5.74 2.044c.897 0 1.615.29 2.157.868.541.579.812 1.405.812 2.478v4.494h-1.596v-4.326c0-.69-.177-1.222-.532-1.596-.355-.382-.84-.574-1.456-.574-.635 0-1.144.206-1.526.616-.383.401-.574.994-.574 1.778v4.102h-1.596v-10.36h1.596v4.34a2.588 2.588 0 011.036-1.344c.485-.317 1.045-.476 1.68-.476zm7.929.028c.7 0 1.298.173 1.792.518.495.346.845.803 1.05 1.372V88.57h1.596v7.714h-1.596v-1.792a2.784 2.784 0 01-1.05 1.372c-.494.346-1.092.518-1.792.518a3.46 3.46 0 01-1.806-.476c-.522-.317-.933-.775-1.232-1.372-.298-.597-.448-1.302-.448-2.114 0-.802.15-1.502.448-2.1.299-.597.71-1.054 1.232-1.372a3.46 3.46 0 011.806-.476zm.49 1.4c-.709 0-1.278.229-1.708.686-.42.448-.63 1.069-.63 1.862 0 .793.21 1.419.63 1.876.43.448.999.672 1.708.672.448 0 .85-.103 1.204-.308.355-.215.635-.513.84-.896.206-.382.308-.83.308-1.344 0-.504-.102-.947-.308-1.33a2.164 2.164 0 00-.84-.896 2.277 2.277 0 00-1.204-.322zm9.742 5.026v1.386h-.98c-.822 0-1.447-.196-1.876-.588-.42-.401-.63-1.064-.63-1.988v-3.78h-1.106V88.57h1.106v-1.918h1.61v1.918h1.862v1.358h-1.862v3.808c0 .439.079.742.238.91.168.168.457.252.868.252h.77zm4.029-6.426c.905 0 1.628.234 2.17.7.55.457.886 1.074 1.008 1.848h-1.512c-.066-.42-.248-.756-.546-1.008-.29-.261-.677-.392-1.162-.392-.402 0-.714.098-.938.294-.215.187-.322.444-.322.77a.77.77 0 00.238.588c.158.15.354.266.588.35a10.8 10.8 0 001.022.28c.578.13 1.045.266 1.4.406.364.14.672.364.924.672.261.299.392.71.392 1.232 0 .644-.248 1.167-.742 1.568-.486.401-1.144.602-1.974.602-.962 0-1.741-.224-2.338-.672-.588-.448-.943-1.073-1.064-1.876h1.554c.046.42.233.76.56 1.022.326.262.756.392 1.288.392.382 0 .681-.098.896-.294a1 1 0 00.336-.77c0-.27-.084-.485-.252-.644a1.672 1.672 0 00-.63-.364 7.78 7.78 0 00-1.036-.28c-.56-.13-1.018-.261-1.372-.392a2.21 2.21 0 01-.896-.63c-.243-.298-.364-.7-.364-1.204 0-.653.242-1.18.728-1.582.494-.41 1.176-.616 2.044-.616zm10.756 5.67h-4.172l-.756 2.142h-1.708l3.64-9.73h1.834l3.626 9.73h-1.708l-.756-2.142zm-.448-1.232l-1.638-4.62-1.638 4.62h3.276zm8.521-4.438c.672 0 1.269.159 1.792.476.532.318.947.775 1.246 1.372.299.598.448 1.298.448 2.1 0 .812-.149 1.517-.448 2.114-.299.597-.714 1.055-1.246 1.372-.523.317-1.12.476-1.792.476-.7 0-1.297-.172-1.792-.518a2.708 2.708 0 01-1.036-1.372v5.46h-1.596V88.57h1.596v1.792a2.707 2.707 0 011.036-1.372c.495-.345 1.092-.518 1.792-.518zm-.49 1.4a2.28 2.28 0 00-1.204.322 2.164 2.164 0 00-.84.896c-.205.383-.308.826-.308 1.33 0 .513.103.962.308 1.344.205.383.485.681.84.896a2.36 2.36 0 001.204.308c.709 0 1.279-.224 1.708-.672.429-.457.644-1.083.644-1.876 0-.784-.215-1.404-.644-1.862-.429-.457-.999-.686-1.708-.686zm9.937-1.4c.672 0 1.27.159 1.792.476a3.24 3.24 0 011.246 1.372c.299.598.448 1.298.448 2.1 0 .812-.149 1.517-.448 2.114a3.235 3.235 0 01-1.246 1.372c-.522.317-1.12.476-1.792.476-.7 0-1.297-.172-1.792-.518a2.713 2.713 0 01-1.036-1.372v5.46h-1.596V88.57h1.596v1.792a2.712 2.712 0 011.036-1.372c.495-.345 1.092-.518 1.792-.518zm-.49 1.4a2.28 2.28 0 00-1.204.322 2.177 2.177 0 00-.84.896c-.205.383-.308.826-.308 1.33 0 .513.103.962.308 1.344.206.383.486.681.84.896a2.36 2.36 0 001.204.308c.71 0 1.279-.224 1.708-.672.43-.457.644-1.083.644-1.876 0-.784-.214-1.404-.644-1.862-.429-.457-.998-.686-1.708-.686z" fill="#090A1F"/><rect opacity=".08" x="77.927" y="105.226" width="57.417" height="7.622" rx="3.811" fill="#090A1F"/><g clip-path="url(#clip0_3905_27504)"><path d="M58.515 78.003H32.818c-4.87 0-8.818 4.001-8.818 8.936v25.685c0 4.935 3.948 8.936 8.818 8.936h25.697c4.87 0 8.818-4.001 8.818-8.936V86.94c0-4.936-3.948-8.937-8.818-8.937z" fill="#68C95F"/><path d="M45.668 89.8c5.485 0 9.93 4.469 9.93 9.981 0 5.513-4.445 9.982-9.93 9.982a9.85 9.85 0 01-4.995-1.352l-4.932 1.352 1.343-4.959a9.971 9.971 0 01-1.347-5.023c0-5.512 4.446-9.981 9.93-9.981zm-3.384 5.29l-.199.008a.95.95 0 00-.37.1 1.286 1.286 0 00-.291.228c-.12.112-.187.21-.26.305a2.734 2.734 0 00-.562 1.675c.002.489.13.965.328 1.41.406.9 1.075 1.854 1.956 2.737.213.213.421.426.646.625a9.359 9.359 0 003.813 2.042l.564.087c.184.01.368-.004.552-.013a1.98 1.98 0 00.828-.23c.13-.068.257-.141.38-.22 0 0 .043-.028.124-.09.134-.1.217-.17.328-.287.082-.086.154-.187.208-.302.078-.162.155-.473.187-.731.024-.198.017-.306.014-.373-.004-.107-.092-.217-.189-.264l-.578-.261s-.864-.378-1.392-.62a.501.501 0 00-.175-.041.475.475 0 00-.375.127c-.005-.002-.072.055-.79.93a.35.35 0 01-.365.129 1.287 1.287 0 01-.19-.066c-.123-.051-.166-.071-.25-.107a5.967 5.967 0 01-1.564-1.002c-.125-.109-.241-.229-.36-.345a6.273 6.273 0 01-1.013-1.266l-.059-.094a.924.924 0 01-.101-.205c-.038-.147.06-.264.06-.264s.242-.266.354-.41a4.42 4.42 0 00.261-.372c.117-.19.154-.384.092-.535a83.216 83.216 0 00-.862-2.037c-.058-.134-.232-.23-.39-.249a4.38 4.38 0 00-.16-.016 3.34 3.34 0 00-.401.004l.2-.008v.001z" fill="#fff"/></g><g filter="url(#filter1_d_3905_27504)"><rect x="123.667" y="11" width="238.333" height="106.713" rx="13.014" fill="#fff"/><rect x="124.167" y="11.5" width="237.333" height="105.713" rx="12.514" stroke="#EEF3FD"/></g><rect opacity=".1" x="136.667" y="78.512" width="201.5" height="8.711" rx="4.356" fill="#457CE9"/><rect opacity=".1" x="136.667" y="93.757" width="164.667" height="8.711" rx="4.356" fill="#457CE9"/><path d="M198.127 32.18v1.289h-2.758v8.596h-1.61v-8.596h-2.744V32.18h7.112zm8.359 5.657c0 .261-.018.49-.056.686h-5.936c.028.793.248 1.381.658 1.764.411.383.92.574 1.526.574.532 0 .98-.135 1.344-.406.374-.27.602-.63.686-1.078h1.708a3.308 3.308 0 01-.644 1.442c-.326.42-.751.751-1.274.994a4.243 4.243 0 01-1.75.35c-.746 0-1.409-.159-1.988-.476a3.402 3.402 0 01-1.344-1.372c-.326-.597-.49-1.302-.49-2.114 0-.803.164-1.503.49-2.1a3.403 3.403 0 011.344-1.372c.579-.317 1.242-.476 1.988-.476.756 0 1.414.159 1.974.476a3.14 3.14 0 011.302 1.288c.308.541.462 1.148.462 1.82zm-1.61-.042c.019-.504-.07-.924-.266-1.26a1.703 1.703 0 00-.784-.756 2.32 2.32 0 00-1.078-.252c-.625 0-1.148.191-1.568.574-.42.383-.648.947-.686 1.694h4.382zm4.747-6.09v10.36h-1.596v-10.36h1.596zm9.1 6.132c0 .261-.019.49-.056.686h-5.936c.028.793.247 1.381.658 1.764.41.383.919.574 1.526.574.532 0 .98-.135 1.344-.406.373-.27.602-.63.686-1.078h1.708a3.332 3.332 0 01-.644 1.442c-.327.42-.752.751-1.274.994a4.247 4.247 0 01-1.75.35c-.747 0-1.41-.159-1.988-.476a3.39 3.39 0 01-1.344-1.372c-.327-.597-.49-1.302-.49-2.114 0-.803.163-1.503.49-2.1a3.39 3.39 0 011.344-1.372c.578-.317 1.241-.476 1.988-.476.756 0 1.414.159 1.974.476a3.153 3.153 0 011.302 1.288c.308.541.462 1.148.462 1.82zm-1.61-.042c.018-.504-.07-.924-.266-1.26a1.707 1.707 0 00-.784-.756 2.323 2.323 0 00-1.078-.252c-.626 0-1.148.191-1.568.574-.42.383-.649.947-.686 1.694h4.382zm6.245-3.542c.7 0 1.297.173 1.792.518.494.345.844.803 1.05 1.372V34.35h1.596v7.798c0 .719-.15 1.353-.448 1.904-.29.56-.71.999-1.26 1.316-.551.317-1.204.476-1.96.476-1.083 0-1.96-.257-2.632-.77-.663-.513-1.078-1.209-1.246-2.086h1.582c.13.457.382.812.756 1.064.373.261.849.392 1.428.392.634 0 1.157-.196 1.568-.588.41-.392.616-.961.616-1.708v-1.876a2.795 2.795 0 01-1.05 1.372c-.495.345-1.092.518-1.792.518a3.46 3.46 0 01-1.806-.476c-.523-.317-.934-.775-1.232-1.372-.299-.597-.448-1.302-.448-2.114 0-.803.149-1.503.448-2.1.298-.597.709-1.055 1.232-1.372a3.46 3.46 0 011.806-.476zm.49 1.4c-.71 0-1.279.229-1.708.686-.42.448-.63 1.069-.63 1.862 0 .793.21 1.419.63 1.876.429.448.998.672 1.708.672.448 0 .849-.103 1.204-.308.354-.215.634-.513.84-.896.205-.383.308-.83.308-1.344 0-.504-.103-.947-.308-1.33a2.177 2.177 0 00-.84-.896 2.28 2.28 0 00-1.204-.322zm7.459.21c.261-.504.635-.9 1.12-1.19.485-.299 1.045-.448 1.68-.448v1.736h-.476c-.7 0-1.265.173-1.694.518-.42.336-.63.896-.63 1.68v3.906h-1.596V34.35h1.596v1.512zm7.09-1.61c.7 0 1.297.173 1.792.518.494.345.844.803 1.05 1.372V34.35h1.596v7.714h-1.596v-1.792a2.795 2.795 0 01-1.05 1.372c-.495.345-1.092.518-1.792.518a3.46 3.46 0 01-1.806-.476c-.523-.317-.934-.775-1.232-1.372-.299-.597-.448-1.302-.448-2.114 0-.803.149-1.503.448-2.1.298-.597.709-1.055 1.232-1.372a3.46 3.46 0 011.806-.476zm.49 1.4c-.71 0-1.279.229-1.708.686-.42.448-.63 1.069-.63 1.862 0 .793.21 1.419.63 1.876.429.448.998.672 1.708.672.448 0 .849-.103 1.204-.308.354-.215.634-.513.84-.896.205-.383.308-.83.308-1.344 0-.504-.103-.947-.308-1.33a2.177 2.177 0 00-.84-.896 2.28 2.28 0 00-1.204-.322zm15.509-1.428c.915 0 1.643.29 2.184.868.551.579.826 1.405.826 2.478v4.494h-1.596v-4.326c0-.672-.168-1.19-.504-1.554-.336-.373-.798-.56-1.386-.56-.625 0-1.125.2-1.498.602-.364.392-.546.97-.546 1.736v4.102h-1.596v-4.326c0-.672-.168-1.19-.504-1.554-.336-.373-.798-.56-1.386-.56-.625 0-1.125.2-1.498.602-.364.392-.546.97-.546 1.736v4.102h-1.596V34.35h1.596v1.61c.196-.56.523-.99.98-1.288.457-.299.994-.448 1.61-.448.644 0 1.199.159 1.666.476.476.317.821.775 1.036 1.372a2.785 2.785 0 011.078-1.358 2.982 2.982 0 011.68-.49z" fill="#090A1F"/><rect opacity=".08" x="190.805" y="51.29" width="57.417" height="7.622" rx="3.811" fill="#090A1F"/><g clip-path="url(#clip1_3905_27504)"><path d="M171.182 24.067h-25.697c-4.87 0-8.818 4-8.818 8.936v25.684c0 4.936 3.948 8.936 8.818 8.936h25.697c4.87 0 8.818-4 8.818-8.936V33.003c0-4.935-3.948-8.936-8.818-8.936z" fill="#52ACED"/><path fill-rule="evenodd" clip-rule="evenodd" d="M164.928 37.116a1.499 1.499 0 011.971.832c.096.248.124.516.081.778l-2.257 13.621c-.219 1.314-1.668 2.067-2.879 1.413-1.013-.548-2.517-1.391-3.871-2.271-.676-.441-2.749-1.852-2.494-2.856.219-.858 3.701-4.084 5.692-6.002.781-.753.424-1.188-.498-.495-2.292 1.72-5.969 4.338-7.185 5.074-1.072.65-1.631.76-2.3.65-1.22-.202-2.352-.515-3.275-.896-1.248-.515-1.187-2.222-.001-2.719l17.016-7.129z" fill="#fff"/></g><g filter="url(#filter2_d_3905_27504)"><path d="M66.94 172.809c0-6.186 5.014-11.2 11.2-11.2h257.296c6.186 0 11.2 5.014 11.2 11.2V216.8c0 6.185-5.014 11.2-11.2 11.2H78.139c-6.185 0-11.2-5.015-11.2-11.2v-43.991z" fill="#fff"/><path d="M67.44 172.809c0-5.91 4.79-10.7 10.7-10.7h257.296c5.91 0 10.7 4.79 10.7 10.7V216.8c0 5.909-4.79 10.7-10.7 10.7H78.139c-5.91 0-10.7-4.791-10.7-10.7v-43.991z" stroke="#090A1F" stroke-opacity=".1"/></g><path opacity=".3" d="M95.525 182.155l-2.338 9.208h-1.45l-2.128-7.523-2.13 7.523h-1.45l-2.35-9.208h1.319l1.763 7.823 2.181-7.823h1.32l2.18 7.797 1.777-7.797h1.306zm2.582 3.487a2.598 2.598 0 011.031-1.149c.453-.279.993-.418 1.62-.418v1.293h-.366c-.67 0-1.219.174-1.645.522-.427.34-.64.906-.64 1.698v3.775h-1.189v-7.171h1.189v1.45zm3.615-3.553c0-.217.074-.392.222-.522.148-.139.344-.209.588-.209s.439.07.587.209c.148.13.222.305.222.522a.703.703 0 01-.222.536c-.148.13-.343.196-.587.196-.244 0-.44-.066-.588-.196a.703.703 0 01-.222-.536zm1.397 2.103v7.171h-1.188v-7.171h1.188zm5.333 6.126v1.045h-.888c-.731 0-1.28-.174-1.645-.523-.357-.348-.536-.931-.536-1.75v-3.866h-1.071v-1.032h1.071v-1.789h1.202v1.789h1.854v1.032h-1.854v3.892c0 .462.082.78.248.954.174.165.47.248.888.248h.731zm8.047-2.939c0 .253-.018.47-.053.653h-5.733c.026.819.256 1.433.692 1.842.444.409.984.614 1.619.614.575 0 1.054-.144 1.437-.431.392-.296.631-.688.719-1.176h1.266a2.977 2.977 0 01-.587 1.332 2.967 2.967 0 01-1.163.915 3.879 3.879 0 01-1.619.326c-.688 0-1.298-.148-1.829-.444a3.192 3.192 0 01-1.254-1.267c-.296-.557-.444-1.21-.444-1.959 0-.749.148-1.402.444-1.959a3.175 3.175 0 011.254-1.28c.531-.296 1.141-.444 1.829-.444.696 0 1.301.148 1.815.444a3 3 0 011.189 1.188c.278.497.418 1.045.418 1.646zm-1.202.078c.026-.531-.061-.975-.261-1.332a1.908 1.908 0 00-.823-.796 2.493 2.493 0 00-1.136-.262c-.653 0-1.202.205-1.646.614-.444.401-.684.993-.718 1.776h4.584zm8.922-3.356c.697 0 1.284.174 1.763.522.488.349.828.814 1.019 1.398v-1.829h1.189v7.171h-1.189v-1.829a2.707 2.707 0 01-1.019 1.398c-.479.348-1.066.522-1.763.522-.636 0-1.201-.148-1.698-.444a3.12 3.12 0 01-1.175-1.267c-.279-.557-.418-1.21-.418-1.959 0-.749.139-1.402.418-1.959a3.106 3.106 0 011.175-1.28c.497-.296 1.062-.444 1.698-.444zm.34 1.058c-.732 0-1.319.235-1.764.705-.435.462-.653 1.102-.653 1.92 0 .819.218 1.463.653 1.933.445.462 1.032.692 1.764.692.47 0 .888-.109 1.254-.326a2.28 2.28 0 00.875-.914c.209-.401.313-.863.313-1.385s-.104-.984-.313-1.384a2.167 2.167 0 00-.875-.915 2.412 2.412 0 00-1.254-.326zm17.566-1.084c.836 0 1.506.27 2.011.809.514.532.771 1.302.771 2.312v4.167h-1.189v-4.062c0-.706-.174-1.245-.522-1.62-.34-.374-.81-.561-1.411-.561-.627 0-1.132.209-1.515.626-.374.41-.562 1.015-.562 1.816v3.801h-1.188v-4.062c0-.706-.174-1.245-.523-1.62-.348-.374-.818-.561-1.41-.561-.636 0-1.145.209-1.528.626-.375.41-.562 1.015-.562 1.816v3.801h-1.189v-7.171h1.189v1.633c.174-.566.483-.997.927-1.293a2.718 2.718 0 011.555-.457c.609 0 1.136.156 1.58.47.453.305.775.757.967 1.358.2-.583.535-1.032 1.005-1.345a2.756 2.756 0 011.594-.483zm11.223 3.304c0 .253-.017.47-.052.653h-5.734c.026.819.257 1.433.692 1.842.444.409.984.614 1.62.614.575 0 1.054-.144 1.437-.431.392-.296.631-.688.718-1.176h1.267a2.967 2.967 0 01-.588 1.332 2.963 2.963 0 01-1.162.915 3.884 3.884 0 01-1.62.326c-.688 0-1.297-.148-1.828-.444a3.179 3.179 0 01-1.254-1.267c-.296-.557-.444-1.21-.444-1.959 0-.749.148-1.402.444-1.959a3.162 3.162 0 011.254-1.28c.531-.296 1.14-.444 1.828-.444.697 0 1.302.148 1.816.444.522.296.918.692 1.188 1.188.279.497.418 1.045.418 1.646zm-1.201.078c.026-.531-.061-.975-.262-1.332a1.905 1.905 0 00-.822-.796 2.5 2.5 0 00-1.137-.262c-.653 0-1.201.205-1.646.614-.444.401-.683.993-.718 1.776h4.585zm5.002-3.356c.81 0 1.459.213 1.946.64.497.418.797.984.902 1.698h-1.137a1.603 1.603 0 00-.535-1.045c-.296-.279-.697-.418-1.202-.418-.426 0-.762.104-1.005.313-.236.201-.353.475-.353.823 0 .261.078.475.235.64.165.157.366.279.601.366.244.078.574.165.992.261.532.122.958.248 1.28.379.331.122.61.322.836.601.235.278.353.653.353 1.123a1.76 1.76 0 01-.666 1.424c-.436.365-1.019.548-1.75.548-.854 0-1.55-.204-2.09-.614-.54-.409-.858-.979-.954-1.711h1.15c.043.436.231.788.561 1.058.34.27.784.405 1.333.405.409 0 .727-.104.953-.313a1.05 1.05 0 00.353-.823c0-.279-.083-.501-.248-.666a1.623 1.623 0 00-.614-.379 8.835 8.835 0 00-1.006-.274 10.161 10.161 0 01-1.28-.366 2.047 2.047 0 01-.81-.575c-.217-.27-.326-.631-.326-1.084 0-.601.222-1.084.666-1.45.444-.374 1.049-.561 1.815-.561zm6.748 0c.81 0 1.458.213 1.946.64.496.418.797.984.901 1.698h-1.136a1.605 1.605 0 00-.536-1.045c-.296-.279-.696-.418-1.201-.418-.427 0-.762.104-1.006.313-.235.201-.353.475-.353.823 0 .261.079.475.235.64.166.157.366.279.601.366.244.078.575.165.993.261.531.122.958.248 1.28.379.331.122.609.322.836.601.235.278.352.653.352 1.123a1.76 1.76 0 01-.666 1.424c-.435.365-1.018.548-1.75.548-.853 0-1.55-.204-2.09-.614-.54-.409-.857-.979-.953-1.711h1.149c.044.436.231.788.562 1.058.339.27.784.405 1.332.405.409 0 .727-.104.954-.313.235-.209.352-.484.352-.823 0-.279-.082-.501-.248-.666a1.616 1.616 0 00-.614-.379 8.835 8.835 0 00-1.006-.274 10.211 10.211 0 01-1.28-.366 2.037 2.037 0 01-.809-.575c-.218-.27-.327-.631-.327-1.084 0-.601.222-1.084.666-1.45.444-.374 1.05-.561 1.816-.561zm7.439 0c.697 0 1.285.174 1.764.522.487.349.827.814 1.019 1.398v-1.829h1.188v7.171h-1.188v-1.829a2.718 2.718 0 01-1.019 1.398c-.479.348-1.067.522-1.764.522-.635 0-1.201-.148-1.697-.444a3.115 3.115 0 01-1.176-1.267c-.279-.557-.418-1.21-.418-1.959 0-.749.139-1.402.418-1.959a3.101 3.101 0 011.176-1.28c.496-.296 1.062-.444 1.697-.444zm.34 1.058c-.731 0-1.319.235-1.763.705-.436.462-.653 1.102-.653 1.92 0 .819.217 1.463.653 1.933.444.462 1.032.692 1.763.692.47 0 .888-.109 1.254-.326a2.28 2.28 0 00.875-.914c.209-.401.314-.863.314-1.385s-.105-.984-.314-1.384a2.167 2.167 0 00-.875-.915 2.412 2.412 0 00-1.254-.326zm8.461-1.058c.697 0 1.285.174 1.764.522.487.349.827.814 1.019 1.398v-1.829h1.188v7.288c0 .662-.139 1.25-.418 1.764-.278.513-.67.914-1.175 1.201-.505.288-1.093.431-1.764.431-.966 0-1.754-.235-2.364-.705-.609-.462-.997-1.088-1.162-1.881h1.175c.14.479.401.853.784 1.123.392.279.893.418 1.502.418.644 0 1.176-.209 1.594-.627.426-.409.64-.984.64-1.724v-1.946a2.718 2.718 0 01-1.019 1.398c-.479.348-1.067.522-1.764.522-.635 0-1.201-.148-1.697-.444a3.115 3.115 0 01-1.176-1.267c-.279-.557-.418-1.21-.418-1.959 0-.749.139-1.402.418-1.959a3.101 3.101 0 011.176-1.28c.496-.296 1.062-.444 1.697-.444zm.34 1.058c-.731 0-1.319.235-1.763.705-.436.462-.653 1.102-.653 1.92 0 .819.217 1.463.653 1.933.444.462 1.032.692 1.763.692.47 0 .888-.109 1.254-.326a2.28 2.28 0 00.875-.914c.209-.401.314-.863.314-1.385s-.105-.984-.314-1.384a2.167 2.167 0 00-.875-.915 2.412 2.412 0 00-1.254-.326zm12.119 2.22c0 .253-.018.47-.053.653h-5.733c.026.819.256 1.433.692 1.842.444.409.984.614 1.619.614.575 0 1.054-.144 1.437-.431.392-.296.631-.688.718-1.176h1.267a2.977 2.977 0 01-.587 1.332 2.967 2.967 0 01-1.163.915 3.882 3.882 0 01-1.619.326c-.688 0-1.298-.148-1.829-.444a3.192 3.192 0 01-1.254-1.267c-.296-.557-.444-1.21-.444-1.959 0-.749.148-1.402.444-1.959a3.175 3.175 0 011.254-1.28c.531-.296 1.141-.444 1.829-.444.696 0 1.301.148 1.815.444a3 3 0 011.189 1.188c.278.497.418 1.045.418 1.646zm-1.202.078c.026-.531-.061-.975-.261-1.332a1.908 1.908 0 00-.823-.796 2.493 2.493 0 00-1.136-.262c-.653 0-1.202.205-1.646.614-.444.401-.684.993-.718 1.776h4.584zm3.631 2.508v1.398h-1.436v-1.398h1.436zm2.232 0v1.398h-1.436v-1.398h1.436zm2.233 0v1.398h-1.437v-1.398h1.437z" fill="#090A1F"/><g clip-path="url(#clip2_3905_27504)"><path d="M268.124 188.491a4.727 4.727 0 01-1.758 2.497 4.775 4.775 0 01-2.905.948 4.775 4.775 0 01-2.905-.948 4.727 4.727 0 01-1.758-2.497.79.79 0 01.051-.621.777.777 0 01.484-.404.78.78 0 01.618.052.78.78 0 01.401.486 3.182 3.182 0 001.179 1.659 3.175 3.175 0 001.93.634c.713 0 1.357-.212 1.93-.634a3.187 3.187 0 001.179-1.659.776.776 0 01.407-.486.798.798 0 01.625-.052.78.78 0 01.471.404.79.79 0 01.051.621zm-6.294-5.571c0 .452-.159.839-.478 1.159-.318.32-.703.48-1.153.48-.45 0-.834-.16-1.153-.48a1.582 1.582 0 01-.478-1.159c0-.453.159-.839.478-1.159.319-.32.703-.48 1.153-.48.45 0 .835.16 1.153.48.319.32.478.706.478 1.159zm6.524 0c0 .452-.16.839-.478 1.159-.319.32-.703.48-1.153.48-.451 0-.835-.16-1.153-.48a1.582 1.582 0 01-.478-1.159c0-.453.159-.839.478-1.159.318-.32.702-.48 1.153-.48.45 0 .834.16 1.153.48.318.32.478.706.478 1.159zm3.261 3.278c0-1.109-.216-2.17-.649-3.182a8.282 8.282 0 00-1.74-2.613 8.232 8.232 0 00-2.599-1.748 7.897 7.897 0 00-3.166-.653c-1.104 0-2.16.218-3.166.653a8.248 8.248 0 00-2.6 1.748 8.28 8.28 0 00-1.739 2.613 8.008 8.008 0 00-.65 3.182c0 1.11.217 2.171.65 3.183a8.28 8.28 0 001.739 2.613 8.248 8.248 0 002.6 1.748 7.897 7.897 0 003.166.653c1.104 0 2.16-.218 3.166-.653a8.232 8.232 0 002.599-1.748 8.282 8.282 0 001.74-2.613 8.008 8.008 0 00.649-3.183zm1.631 0c0 1.785-.437 3.431-1.312 4.938a9.771 9.771 0 01-3.561 3.579c-1.5.879-3.137 1.319-4.912 1.319s-3.413-.44-4.912-1.319a9.771 9.771 0 01-3.561-3.579c-.875-1.507-1.312-3.153-1.312-4.938 0-1.784.437-3.43 1.312-4.937a9.764 9.764 0 013.561-3.579c1.499-.88 3.137-1.319 4.912-1.319s3.412.439 4.912 1.319a9.764 9.764 0 013.561 3.579c.875 1.507 1.312 3.153 1.312 4.937z" fill="#C8C8C8"/></g><g clip-path="url(#clip3_3905_27504)"><path d="M320.471 186.198h-4.82l-1.613-6.446a.562.562 0 01-.018-.115c-.018-.591.629-1.001 1.19-.73l15.119 7.291-15.119 7.292c-.554.268-1.194-.13-1.19-.711a.491.491 0 01.027-.152l1.196-3.97" stroke="#C8C8C8" stroke-width="1.633" stroke-linecap="round" stroke-linejoin="round"/></g><path d="M287.925 182.847v6.63c0 1.305.515 2.556 1.433 3.478a4.88 4.88 0 006.919 0 4.928 4.928 0 001.433-3.478v-8.196c0-.87-.344-1.703-.955-2.318a3.255 3.255 0 00-2.307-.961c-.865 0-1.694.346-2.306.961a3.284 3.284 0 00-.955 2.318v7.526a1.646 1.646 0 001.006 1.514c.198.083.41.125.624.125v0c.433 0 .848-.172 1.154-.48.305-.307.477-.724.477-1.159v-5.887" stroke="#C8C8C8" stroke-width="1.633" stroke-linecap="round" stroke-linejoin="round"/><defs><clipPath id="clip0_3905_27504"><rect x="24" y="78.003" width="43.333" height="43.556" rx="13.014" fill="#fff"/></clipPath><clipPath id="clip1_3905_27504"><rect x="136.667" y="24.067" width="43.333" height="43.556" rx="13.014" fill="#fff"/></clipPath><clipPath id="clip2_3905_27504"><path fill="#fff" transform="translate(253.676 176.363)" d="M0 0h19.571v19.671H0z"/></clipPath><clipPath id="clip3_3905_27504"><path fill="#fff" transform="translate(312.388 176.363)" d="M0 0h19.571v19.671H0z"/></clipPath><filter id="filter0_d_3905_27504" x=".155" y="54.091" width="346.784" height="215.164" filterUnits="userSpaceOnUse" color-interpolation-filters="sRGB"><feFlood flood-opacity="0" result="BackgroundImageFix"/><feColorMatrix in="SourceAlpha" values="0 0 0 0 0 0 0 0 0 0 0 0 0 0 0 0 0 0 127 0" result="hardAlpha"/><feOffset dx="43.38" dy="43.38"/><feGaussianBlur stdDeviation="27.113"/><feComposite in2="hardAlpha" operator="out"/><feColorMatrix values="0 0 0 0 0 0 0 0 0 0 0 0 0 0 0 0 0 0 0.04 0"/><feBlend in2="BackgroundImageFix" result="effect1_dropShadow_3905_27504"/><feBlend in="SourceGraphic" in2="effect1_dropShadow_3905_27504" result="shape"/></filter><filter id="filter1_d_3905_27504" x="112.822" y=".155" width="346.784" height="215.164" filterUnits="userSpaceOnUse" color-interpolation-filters="sRGB"><feFlood flood-opacity="0" result="BackgroundImageFix"/><feColorMatrix in="SourceAlpha" values="0 0 0 0 0 0 0 0 0 0 0 0 0 0 0 0 0 0 127 0" result="hardAlpha"/><feOffset dx="43.38" dy="43.38"/><feGaussianBlur stdDeviation="27.113"/><feComposite in2="hardAlpha" operator="out"/><feColorMatrix values="0 0 0 0 0 0 0 0 0 0 0 0 0 0 0 0 0 0 0.04 0"/><feBlend in2="BackgroundImageFix" result="effect1_dropShadow_3905_27504"/><feBlend in="SourceGraphic" in2="effect1_dropShadow_3905_27504" result="shape"/></filter><filter id="filter2_d_3905_27504" x="56.094" y="150.764" width="388.148" height="174.842" filterUnits="userSpaceOnUse" color-interpolation-filters="sRGB"><feFlood flood-opacity="0" result="BackgroundImageFix"/><feColorMatrix in="SourceAlpha" values="0 0 0 0 0 0 0 0 0 0 0 0 0 0 0 0 0 0 127 0" result="hardAlpha"/><feOffset dx="43.38" dy="43.38"/><feGaussianBlur stdDeviation="27.113"/><feComposite in2="hardAlpha" operator="out"/><feColorMatrix values="0 0 0 0 0 0 0 0 0 0 0 0 0 0 0 0 0 0 0.04 0"/><feBlend in2="BackgroundImageFix" result="effect1_dropShadow_3905_27504"/><feBlend in="SourceGraphic" in2="effect1_dropShadow_3905_27504" result="shape"/></filter></defs></svg>