<svg width="32" height="32" fill="#fff" xmlns="http://www.w3.org/2000/svg"><path d="M23.318 8.639l.11.11.055.022a10.391 10.391 0 01-11.536 16.812l-.005-.003a2.153 2.153 0 00-1.094-.153l-.03.003-.029.006-4.695.943h-.168a.366.366 0 01-.264-.104.364.364 0 01-.096-.33h0l.98-4.713.003-.013.002-.013a1.93 1.93 0 00-.156-1.149A10.392 10.392 0 0123.318 8.64zM5.812 21.079l-.98 4.713.88-5.426c.107.222.142.471.1.713zm5.125 5.092c.243-.029.488.006.713.1l-.713-.1z" stroke="#457CE9" stroke-opacity=".7" stroke-width="1.5"/></svg>