<svg width="48" height="48" fill="none" xmlns="http://www.w3.org/2000/svg"><path d="M35.958 17.988l.146.147.07.029a13.325 13.325 0 01-14.798 21.55h0l-.006-.002c-.45-.19-.94-.259-1.425-.2l-.04.004-.038.008-6.033 1.212h-.214a.433.433 0 01-.17-.03l-.369.927.368-.927a.434.434 0 01-.142-.093.433.433 0 01-.115-.39v-.002l1.26-6.06.004-.017.003-.017a2.518 2.518 0 00-.203-1.498 13.325 13.325 0 0121.7-14.64zm-22.483 15.97l-1.26 6.06 1.13-6.977c.138.285.183.605.13.917z" stroke="#457CE9" stroke-width="2"/><circle cx="12.918" cy="14.562" r="11.652" fill="#fff" stroke="#457CE9" stroke-width="2"/><path d="M12.914 19.438v-8.25" stroke="#457CE9" stroke-width="2" stroke-linecap="round"/><path d="M17.414 14.188l-4.5-4.5-4.5 4.5" stroke="#457CE9" stroke-width="2" stroke-linecap="round" stroke-linejoin="round"/></svg>