<svg width="40" height="40" fill="none" xmlns="http://www.w3.org/2000/svg"><path d="M18.875 29.444v1.39c0 1.104.435 2.164 1.208 2.946A4.104 4.104 0 0023 35a4.104 4.104 0 002.917-1.22 4.188 4.188 0 001.208-2.947v-1.389M20.25 12.778c0-.737.29-1.444.805-1.964A2.736 2.736 0 0123 10c.73 0 1.429.293 1.945.814.515.52.805 1.227.805 1.964a9.653 9.653 0 013.894 3.396 9.789 9.789 0 011.606 4.937v4.167a5.59 5.59 0 00.884 2.414A5.52 5.52 0 0034 29.444H12a5.52 5.52 0 001.866-1.752 5.59 5.59 0 00.884-2.414V21.11a9.789 9.789 0 011.606-4.937 9.653 9.653 0 013.894-3.396z" stroke="#457CE9" stroke-width="1.5" stroke-linecap="round" stroke-linejoin="round"/><circle cx="10.542" cy="12.208" r="9.792" fill="#fff" stroke="#457CE9" stroke-width="1.5"/><path d="M7.031 15.721l7.028-7.028m-7.032 0l7.028 7.028" stroke="#457CE9" stroke-width="1.5" stroke-linecap="round" stroke-linejoin="round"/></svg>