<svg width="32" height="32" fill="none" xmlns="http://www.w3.org/2000/svg"><path d="M24.922 5.093c-.17.052-.887.315-1.6.588l-16.225 6.15c-2.595.98-4.86 1.852-5.03 1.93-.459.216-.727.438-.902.737a1.254 1.254 0 00.258 1.558c.314.284.619.413 3.255 1.372l2.456.898.263.593c1.537 3.55 2.404 5.53 2.476 5.675.145.29.599.717.924.872.258.119.36.14.789.14.459 0 .516-.01.882-.186.413-.196.5-.274 1.93-1.625l.825-.78 2.719 1.868c3.08 2.116 3.085 2.12 3.874 2.08.851-.047 1.491-.537 1.785-1.383.057-.155.94-4.344 1.966-9.307 1.816-8.791 1.867-9.039 1.847-9.524-.016-.454-.031-.536-.196-.856a1.588 1.588 0 00-.94-.815c-.34-.109-.959-.103-1.356.015zm.892 1.76c.01.15-.619 3.296-1.82 9.105-1.012 4.88-1.858 8.946-1.889 9.034-.082.263-.268.402-.485.366-.129-.02-1.44-.893-4.555-3.034-2.404-1.65-4.411-3.038-4.458-3.085-.077-.077.217-.36 4.066-3.89 2.285-2.094 4.2-3.884 4.256-3.972.113-.196.129-.547.026-.748-.145-.279-.32-.387-.645-.413l-.305-.02-6.17 3.306L7.67 16.81l-2.296-.84c-1.264-.46-2.3-.847-2.3-.867 0-.016.758-.315 1.692-.666.928-.35 5.958-2.26 11.18-4.24 7-2.657 9.538-3.596 9.672-3.586.176.01.181.016.196.243zm-10.978 7.965c0 .016-.965.908-2.141 1.986-1.176 1.084-2.167 2.018-2.203 2.08-.046.087-.072.505-.093 1.48l-.025 1.362-.785-1.81c-.433-.991-.789-1.827-.789-1.853 0-.02 1.357-.764 3.008-1.65 3.224-1.73 3.028-1.626 3.028-1.595zm-2.538 6.18c.134.088.541.372.908.63l.67.464-.263.232c-.144.13-.567.527-.939.877l-.675.635v-1.501c0-.826.015-1.502.03-1.502a1.7 1.7 0 01.269.166z" fill="#457CE9"/></svg>