<svg width="32" height="33" fill="none" xmlns="http://www.w3.org/2000/svg"><path d="M15.371 9.754l.629.966.628-.966c1.147-1.761 3.177-2.898 5.506-2.898 1.806 0 3.212.716 4.177 1.85.976 1.148 1.534 2.766 1.534 4.598 0 2.293-1.46 4.701-3.517 6.922-2.032 2.195-4.524 4.077-6.333 5.312a3.504 3.504 0 01-3.985-.006c-1.808-1.241-4.302-3.133-6.336-5.33-2.059-2.224-3.52-4.626-3.52-6.898 0-1.832.559-3.45 1.534-4.598.965-1.134 2.37-1.85 4.178-1.85 2.328 0 4.359 1.137 5.505 2.898z" fill="#FB5A55" stroke="#FB5A55" stroke-width="1.5"/><circle cx="23.176" cy="19.078" r="5.426" fill="#fff" stroke="#FB5A55" stroke-width="1.5"/><path d="M24.29 19.057h1.32m0 0s-1.1-1.54-2.75-1.54c-1.52 0-2.75 1.1-2.75 2.42m5.5-.88v-1.54" stroke="#FB5A55" stroke-width="1.5" stroke-linecap="round" stroke-linejoin="round"/></svg>