<svg width="25" height="25" fill="none" xmlns="http://www.w3.org/2000/svg"><path d="M18.606 9.515a3.278 3.278 0 00-1.32-1.34c-.56-.307-1.213-.46-1.96-.46-.827 0-1.56.186-2.2.56-.64.373-1.14.906-1.5 1.6-.36.693-.54 1.493-.54 2.4 0 .933.18 1.746.54 2.44a3.96 3.96 0 001.54 1.6c.653.373 1.413.56 2.28.56 1.067 0 1.94-.28 2.62-.84.68-.574 1.127-1.367 1.34-2.38h-4.8v-2.14h7.56v2.44a6.56 6.56 0 01-1.2 2.7c-.613.826-1.407 1.493-2.38 2-.96.493-2.04.74-3.24.74-1.347 0-2.567-.3-3.66-.9a6.786 6.786 0 01-2.56-2.54c-.613-1.08-.92-2.307-.92-3.68 0-1.374.307-2.6.92-3.68a6.6 6.6 0 012.56-2.54c1.093-.614 2.307-.92 3.64-.92 1.573 0 2.94.386 4.1 1.16 1.16.76 1.96 1.833 2.4 3.22h-3.22z" fill="#0E0E0E" fill-opacity=".5"/><path d="M18.606 9.515a3.278 3.278 0 00-1.32-1.34c-.56-.307-1.213-.46-1.96-.46-.827 0-1.56.186-2.2.56-.64.373-1.14.906-1.5 1.6-.36.693-.54 1.493-.54 2.4 0 .933.18 1.746.54 2.44a3.96 3.96 0 001.54 1.6c.653.373 1.413.56 2.28.56 1.067 0 1.94-.28 2.62-.84.68-.574 1.127-1.367 1.34-2.38h-4.8v-2.14h7.56v2.44a6.56 6.56 0 01-1.2 2.7c-.613.826-1.407 1.493-2.38 2-.96.493-2.04.74-3.24.74-1.347 0-2.567-.3-3.66-.9a6.786 6.786 0 01-2.56-2.54c-.613-1.08-.92-2.307-.92-3.68 0-1.374.307-2.6.92-3.68a6.6 6.6 0 012.56-2.54c1.093-.614 2.307-.92 3.64-.92 1.573 0 2.94.386 4.1 1.16 1.16.76 1.96 1.833 2.4 3.22h-3.22z" fill="url(#paint0_linear_6719_44179)"/><path d="M6.12 5.314v13.96h-2.8V5.314h2.8z" fill="#0E0E0E" fill-opacity=".5"/><path d="M6.12 5.314v13.96h-2.8V5.314h2.8z" fill="url(#paint1_linear_6719_44179)"/><defs><linearGradient id="paint0_linear_6719_44179" x1="-9.246" y1="-3.184" x2="47.907" y2="4.003" gradientUnits="userSpaceOnUse"><stop stop-color="#F6EC32"/><stop offset=".521" stop-color="#DF2E80"/><stop offset="1" stop-color="#132EF7"/></linearGradient><linearGradient id="paint1_linear_6719_44179" x1="-9.246" y1="-3.185" x2="47.907" y2="4.003" gradientUnits="userSpaceOnUse"><stop stop-color="#F6EC32"/><stop offset=".521" stop-color="#DF2E80"/><stop offset="1" stop-color="#132EF7"/></linearGradient></defs></svg>