<svg width="48" height="48" fill="none" xmlns="http://www.w3.org/2000/svg"><path d="M26.2 17.312l.83 1.241.831-1.241C29.612 14.696 32.721 13 36.294 13c2.778 0 4.94 1.07 6.42 2.763 1.492 1.706 2.338 4.102 2.338 6.805 0 3.502-2.364 7.171-5.617 10.513-3.215 3.303-7.11 6.097-9.788 7.844a4.737 4.737 0 01-5.226-.008c-2.678-1.757-6.575-4.565-9.792-7.87-3.257-3.348-5.621-7.01-5.621-10.48 0-2.702.847-5.098 2.339-6.804C12.827 14.07 14.988 13 17.766 13c3.573 0 6.682 1.696 8.433 4.312z" stroke="#457CE9" stroke-width="2"/><circle cx="12.918" cy="14.562" r="11.652" fill="#fff" stroke="#457CE9" stroke-width="2"/><path d="M7 14s2.1 2.462 6 2.462S19 14 19 14M8.2 15.012L7 16.462m12 0l-1.198-1.448m-6.654 1.25L10.6 18m4.238-1.73L15.4 18" stroke="#457CE9" stroke-width="2" stroke-linecap="round" stroke-linejoin="round"/></svg>