<svg width="27" height="22" fill="none" xmlns="http://www.w3.org/2000/svg"><path d="M16.762 5.43l3.214-3.214 2.143 2.143 3.214-3.214" stroke="#fff" stroke-width="2.143" stroke-linecap="round" stroke-linejoin="round"/><circle cx="10.76" cy="11.432" r="4.071" stroke="#fff" stroke-width="2.143"/><path d="M20.19 9.714v3.143c0 2.8 0 4.2-.546 5.27a5 5 0 01-2.185 2.185c-1.07.545-2.47.545-5.27.545H9.332c-2.8 0-4.2 0-5.27-.545a5 5 0 01-2.185-2.185c-.545-1.07-.545-2.47-.545-5.27V10c0-2.8 0-4.2.545-5.27a5 5 0 012.185-2.185C5.132 2 6.532 2 9.332 2h3.143" stroke="#fff" stroke-width="2.143" stroke-linecap="round"/></svg>