<svg width="24" height="24" fill="none" xmlns="http://www.w3.org/2000/svg"><g clip-path="url(#clip0_4172_28426)" stroke="red" stroke-width="1.5"><path d="M18.607 4.012h0a2.696 2.696 0 01-2.991-1.727 1.196 1.196 0 00-1.889-.507l4.88 2.234zm0 0a1.195 1.195 0 011.382 1.381h0m-1.382-1.381l1.382 1.382m0 0a2.696 2.696 0 001.727 2.99l-1.727-2.99zm2.232 8.333h0a2.696 2.696 0 010-3.454v3.454zm0 0c.53.636.271 1.604-.505 1.889a2.696 2.696 0 00-1.727 2.99h0m2.232-4.879l-2.232 4.88m0 0a1.195 1.195 0 01-1.382 1.382h0m1.382-1.382l-1.382 1.382m0 0a2.696 2.696 0 00-2.991 1.727m2.99-1.727l-2.99 1.727m-5.343.505h0c1-.834 2.454-.834 3.454 0h-3.454zm0 0a1.196 1.196 0 01-1.889-.505l1.889.505zm-4.88-2.232h0a2.696 2.696 0 012.991 1.727l-2.99-1.727zm0 0a1.195 1.195 0 01-1.382-1.382h0m1.382 1.382l-1.382-1.382m0 0a2.696 2.696 0 00-1.727-2.991 1.196 1.196 0 01-.505-1.889c.834-1 .834-2.453 0-3.453h0m2.232 8.333L1.78 10.273m0 0a1.196 1.196 0 01.506-1.888h0m-.507 1.888l.507-1.888m0 0a2.696 2.696 0 001.727-2.991h0m-1.727 2.99l1.727-2.99m0 0a1.195 1.195 0 011.382-1.382h0M4.012 5.394l1.382-1.382m0 0a2.697 2.697 0 002.991-1.727h0m-2.99 1.727l2.99-1.727m0 0a1.196 1.196 0 011.889-.506h0m-1.889.506l1.889-.506m0 0c1 .834 2.453.833 3.453 0h-3.453zm5.342 19.937a1.196 1.196 0 01-1.889.505l1.889-.505zm6.1-13.331a1.196 1.196 0 01.505 1.888l-.505-1.888z"/><path d="M9 13.204l.998 1.042a1 1 0 001.445 0L15.75 9.75" stroke-linecap="round" stroke-linejoin="round"/></g><defs><clipPath id="clip0_4172_28426"><path fill="#fff" d="M0 0h24v24H0z"/></clipPath></defs></svg>