<svg width="48" height="48" fill="none" xmlns="http://www.w3.org/2000/svg"><path fill-rule="evenodd" clip-rule="evenodd" d="M10.378 21.407a3.227 3.227 0 01-.202-.47 81.928 81.928 0 015.429-1.675c.161 1.536.622 3.403 1.587 5.044 1.257 2.138 3.39 3.907 6.727 3.977v.003a12.034 12.034 0 00.209 0v-.003c3.336-.07 5.47-1.84 6.727-3.977.965-1.641 1.426-3.508 1.587-5.044a81.928 81.928 0 015.429 1.674 3.23 3.23 0 01-.202.47c-.268.522-.705 1.13-1.251 1.772-1.087 1.279-2.486 2.554-3.44 3.333a1 1 0 00.427 1.754c3.775.788 5.655 3.112 6.525 5.75.78 2.367.738 4.985.41 6.91h-7.108v2h7.928a1 1 0 00.974-.773c.511-2.2.732-5.619-.304-8.763-.906-2.746-2.781-5.283-6.18-6.555a27.92 27.92 0 002.292-2.36c.592-.697 1.138-1.438 1.506-2.153.346-.673.642-1.53.409-2.355a1 1 0 00-.08-.196c-1.358-2.562-3.747-6.433-6.515-9.745-1.385-1.656-2.886-3.2-4.422-4.371-1.518-1.157-3.155-2.017-4.808-2.182v-.001h-.017v.001c-1.653.165-3.29 1.025-4.808 2.182-1.537 1.172-3.038 2.715-4.422 4.37-2.768 3.313-5.157 7.184-6.516 9.746a1 1 0 00-.079.196c-.233.825.063 1.682.41 2.355.367.715.913 1.456 1.505 2.153.71.835 1.53 1.657 2.292 2.36-3.4 1.272-5.274 3.809-6.18 6.555-1.036 3.144-.815 6.563-.304 8.763a1 1 0 00.974.773h7.928v-2H7.706c-.327-1.925-.37-4.543.41-6.91.871-2.638 2.751-4.962 6.526-5.75a1 1 0 00.428-1.754c-.955-.779-2.354-2.054-3.441-3.333-.546-.642-.983-1.25-1.251-1.771zM24.023 5.486c-1.078.158-2.295.76-3.603 1.758-1.377 1.05-2.77 2.473-4.1 4.063-1.937 2.317-3.69 4.935-5.007 7.14a80.027 80.027 0 014.98-1.43c2.892-.723 5.742-.99 7.626-1.008a18.323 18.323 0 01.209 0c1.884.019 4.734.285 7.626 1.008a80.03 80.03 0 014.98 1.43c-1.317-2.205-3.07-4.823-5.007-7.14-1.33-1.59-2.723-3.013-4.1-4.063-1.308-.997-2.526-1.6-3.604-1.758zm0 12.523c-1.57.008-3.961.21-6.455.762.108 1.358.497 3.075 1.348 4.521.981 1.67 2.551 2.959 5.107 2.993 2.557-.034 4.127-1.324 5.108-2.993.85-1.446 1.24-3.163 1.348-4.52-2.494-.552-4.885-.755-6.456-.763z" fill="#457CE9"/><mask id="a" fill="#fff"><rect x="14.438" y="31.984" width="19.128" height="13.172" rx="1.757"/></mask><rect x="14.438" y="31.984" width="19.128" height="13.172" rx="1.757" stroke="#457CE9" stroke-width="4" mask="url(#a)"/></svg>