<svg xmlns="http://www.w3.org/2000/svg" width="512" height="512" viewBox="0 0 64 64"><g fill="#0095ff"><path d="M63.228.459a2.048 2.048 0 00-2.899.32L27.4 42.214 16.619 28.649a2.048 2.048 0 00-2.9-.32 2.097 2.097 0 00-.315 2.931l11.929 15.011a2.017 2.017 0 001.768 1.032c.115 0 .231-.033.349-.053.066.008.133.044.202.044.652 0 1.287-.319 1.688-.86L63.545 3.389a2.097 2.097 0 00-.317-2.93z"/><path d="M59.159 21.184c-1.14 0-2.062.933-2.062 2.084v34.478c0 1.149-.926 2.085-2.064 2.085H6.191a2.077 2.077 0 01-2.064-2.085V8.393c0-1.148.926-2.084 2.064-2.084h33.811a2.074 2.074 0 002.063-2.086c0-1.15-.923-2.084-2.063-2.084H6.191c-3.414 0-6.19 2.805-6.19 6.254v49.353c0 3.449 2.776 6.255 6.19 6.255h48.841c3.414 0 6.191-2.806 6.191-6.255V23.268a2.071 2.071 0 00-2.064-2.084z"/></g></svg>