<svg width="56" height="56" fill="none" xmlns="http://www.w3.org/2000/svg"><circle cx="28" cy="28" r="27.5" fill="#fff" stroke="#E3E8EB"/><path d="M32.822 25.158A8.876 8.876 0 0038 26.814v-3.713c-.366 0-.73-.038-1.088-.114v2.923a8.878 8.878 0 01-5.178-1.656v7.579a6.866 6.866 0 01-6.867 6.864 6.837 6.837 0 01-3.824-1.161 6.849 6.849 0 004.91 2.065 6.866 6.866 0 006.869-6.864v-7.579zm1.341-3.746a5.174 5.174 0 01-1.341-3.03v-.478h-1.03a5.199 5.199 0 002.371 3.508zm-10.72 13.215a3.14 3.14 0 013.454-4.894v-3.796a6.92 6.92 0 00-1.088-.063v2.955a3.14 3.14 0 00-2.367 5.798z" fill="#FF004F"/><path d="M31.735 24.254a8.878 8.878 0 005.178 1.656v-2.923a5.197 5.197 0 01-2.75-1.575 5.2 5.2 0 01-2.371-3.508h-2.707v14.832a3.141 3.141 0 01-5.642 1.89 3.14 3.14 0 012.367-5.797v-2.955a6.866 6.866 0 00-4.766 11.662 6.837 6.837 0 003.823 1.161 6.866 6.866 0 006.868-6.864v-7.579z" fill="#000"/><path d="M36.914 22.987v-.79a5.18 5.18 0 01-2.75-.785 5.194 5.194 0 002.75 1.575zm-5.121-5.083a5.274 5.274 0 01-.057-.426V17h-3.738v14.833a3.14 3.14 0 01-4.555 2.794 3.141 3.141 0 005.642-1.89V17.904h2.708zm-5.983 7.97v-.841a6.866 6.866 0 00-7.81 6.8 6.856 6.856 0 003.045 5.703 6.866 6.866 0 014.766-11.662z" fill="#00F2EA"/></svg>