<svg width="48" height="48" fill="none" xmlns="http://www.w3.org/2000/svg"><g clip-path="url(#clip0_6502_33891)"><path d="M27.4 30.726c-4.042 0-7.105 1.027-9.376 2.607-2.267 1.577-3.683 3.66-4.509 5.68-.636 1.556-.25 3.068.694 4.148.922 1.055 2.359 1.694 3.894 1.694h18.594c1.536 0 2.973-.64 3.894-1.694.944-1.08 1.33-2.592.694-4.147-.825-2.02-2.242-4.104-4.508-5.68-2.271-1.58-5.334-2.608-9.377-2.608zm.116-4.5a6.685 6.685 0 100-13.37 6.685 6.685 0 000 13.37z" stroke="#457CE9" stroke-width="2"/></g><circle cx="12.65" cy="14.65" r="11.65" fill="#fff" stroke="#457CE9" stroke-width="2"/><path d="M8.438 18.867l8.433-8.433m-8.437 0l8.433 8.433" stroke="#457CE9" stroke-width="2" stroke-linecap="round" stroke-linejoin="round"/><defs><clipPath id="clip0_6502_33891"><path fill="#fff" transform="translate(6.57 8.215)" d="M0 0h38v38H0z"/></clipPath></defs></svg>