<svg width="26" height="22" fill="#fff" xmlns="http://www.w3.org/2000/svg"><path d="M12.373 3.852l.629.966.628-.966C14.776 2.091 16.807.954 19.136.954c1.806 0 3.212.715 4.177 1.85.976 1.147 1.534 2.765 1.534 4.597 0 2.294-1.46 4.702-3.517 6.922-2.032 2.195-4.524 4.078-6.333 5.313a3.504 3.504 0 01-3.985-.006c-1.808-1.242-4.302-3.133-6.336-5.33-2.06-2.224-3.52-4.627-3.52-6.899 0-1.832.559-3.45 1.534-4.597C3.655 1.67 5.06.954 6.867.954c2.33 0 4.36 1.137 5.506 2.898z" stroke="#457CE9" stroke-opacity=".7" stroke-width="1.5"/></svg>