<svg width="32" height="32" fill="#fff" xmlns="http://www.w3.org/2000/svg"><path d="M15.373 8.852l.629.966.628-.966c1.146-1.761 3.177-2.898 5.506-2.898 1.806 0 3.212.715 4.177 1.85.976 1.147 1.534 2.765 1.534 4.597 0 2.294-1.46 4.702-3.517 6.922-2.032 2.195-4.524 4.078-6.333 5.313a3.504 3.504 0 01-3.985-.006c-1.808-1.242-4.302-3.133-6.336-5.33-2.06-2.224-3.52-4.627-3.52-6.899 0-1.832.559-3.45 1.534-4.597.965-1.135 2.37-1.85 4.177-1.85 2.33 0 4.36 1.137 5.506 2.898z" stroke="#457CE9" stroke-opacity=".7" stroke-width="1.5"/><circle cx="23.176" cy="18.176" r="6.176"/><circle cx="23.176" cy="18.176" r="5.426" stroke="#457CE9" stroke-opacity=".7" stroke-width="1.5"/><path d="M24.29 18.154h1.32m0 0s-1.1-1.54-2.75-1.54c-1.52 0-2.75 1.1-2.75 2.42m5.5-.88v-1.54" stroke="#457CE9" stroke-opacity=".7" stroke-width="1.5" stroke-linecap="round" stroke-linejoin="round"/></svg>