<svg width="40" height="37" fill="none" xmlns="http://www.w3.org/2000/svg"><path d="M31.318 13.639l.11.11.055.022a10.392 10.392 0 01-11.536 16.811l-.005-.002a2.153 2.153 0 00-1.094-.153l-.03.003-.029.006-4.695.943h-.168a.366.366 0 01-.264-.103.366.366 0 01-.096-.33h0l.98-4.714.003-.013.002-.013a1.93 1.93 0 00-.156-1.149A10.392 10.392 0 0131.318 13.64z" stroke="red" stroke-width="1.5"/><circle cx="10.06" cy="10.348" r="9.263" fill="#FBFCFF" stroke="red" stroke-width="1.5"/><path d="M10.059 14.729V7.845" stroke="red" stroke-width="1.5" stroke-linecap="round"/><path d="M6.305 10.348l3.755-3.755 3.754 3.755" stroke="red" stroke-width="1.5" stroke-linecap="round" stroke-linejoin="round"/></svg>