<svg width="16" height="16" fill="none" xmlns="http://www.w3.org/2000/svg"><g clip-path="url(#clip0_3952_10977)" stroke="#457CE9" stroke-width="1.25" stroke-linecap="round" stroke-linejoin="round"><path d="M1.334 4.667a1.333 1.333 0 011.333-1.333h10.667a1.333 1.333 0 011.333 1.333v6.667a1.333 1.333 0 01-1.333 1.333H2.667a1.333 1.333 0 01-1.333-1.333V4.667z"/><path d="M8.001 10a2 2 0 100-4 2 2 0 000 4zM1.334 6a2.667 2.667 0 002.667-2.667m8 9.334A2.667 2.667 0 0114.667 10"/></g><defs><clipPath id="clip0_3952_10977"><path fill="#fff" d="M0 0h16v16H0z"/></clipPath></defs></svg>