<svg width="40" height="40" fill="none" xmlns="http://www.w3.org/2000/svg"><circle cx="20" cy="20" r="20" fill="#457CE9"/><path fill-rule="evenodd" clip-rule="evenodd" d="M13.177 18.702a1.618 1.618 0 01-.1-.235 40.967 40.967 0 012.714-.837c.08.768.31 1.701.793 2.522.629 1.069 1.696 1.953 3.364 1.989a4.516 4.516 0 00.104 0c1.668-.036 2.735-.92 3.364-1.99.482-.82.713-1.753.793-2.52 1.016.273 1.991.584 2.715.836-.02.063-.053.14-.101.235a4.96 4.96 0 01-.626.886 14.269 14.269 0 01-1.72 1.666.5.5 0 00.214.877c1.887.395 2.827 1.556 3.262 2.876.39 1.183.37 2.492.206 3.455h-3.555v1h3.964a.5.5 0 00.487-.387c.256-1.1.366-2.81-.152-4.381-.453-1.374-1.39-2.642-3.09-3.278.381-.351.791-.762 1.146-1.18.296-.348.57-.719.753-1.076.173-.337.321-.765.205-1.178a.505.505 0 00-.04-.098c-.68-1.281-1.874-3.216-3.258-4.873-.692-.828-1.442-1.6-2.21-2.185-.76-.579-1.578-1.009-2.405-1.09v-.002h-.008v.001c-.827.082-1.645.512-2.404 1.091-.768.586-1.519 1.357-2.211 2.185-1.384 1.657-2.579 3.592-3.258 4.873a.511.511 0 00-.04.098c-.116.413.032.84.205 1.178.184.357.457.728.753 1.076.355.418.765.829 1.146 1.18-1.7.636-2.637 1.904-3.09 3.278-.518 1.572-.408 3.28-.152 4.38a.5.5 0 00.487.388h3.964v-1H11.84c-.163-.963-.184-2.272.206-3.455.435-1.32 1.375-2.482 3.262-2.876a.5.5 0 00.214-.877 14.269 14.269 0 01-1.72-1.666 4.96 4.96 0 01-.626-.886zM20 10.742c-.539.079-1.148.38-1.802.88-.688.524-1.385 1.235-2.05 2.03-.968 1.16-1.845 2.468-2.503 3.57a40 40 0 012.49-.714 17.275 17.275 0 013.813-.504h.104c.942.009 2.367.142 3.813.504a40 40 0 012.49.715c-.658-1.103-1.535-2.412-2.503-3.57-.665-.796-1.362-1.507-2.05-2.032-.654-.498-1.263-.8-1.802-.879zm0 6.261a16.17 16.17 0 00-3.228.382c.054.678.249 1.537.674 2.26.49.835 1.276 1.48 2.554 1.497 1.278-.017 2.063-.662 2.554-1.497.425-.723.62-1.582.674-2.26A16.17 16.17 0 0020 17.003z" fill="#fff"/><rect x="15.707" y="24.49" width="8.564" height="5.586" rx="1" stroke="#fff"/></svg>