<svg width="36" height="36" fill="none" xmlns="http://www.w3.org/2000/svg"><path d="M18.873 12.852l.628.966.63-.966c1.145-1.761 3.176-2.898 5.505-2.898 1.806 0 3.212.715 4.177 1.85.976 1.147 1.534 2.765 1.534 4.597 0 2.294-1.46 4.702-3.517 6.922-2.032 2.195-4.524 4.078-6.333 5.313a3.504 3.504 0 01-3.985-.006c-1.808-1.242-4.302-3.133-6.336-5.33-2.06-2.224-3.52-4.627-3.52-6.899 0-1.832.559-3.45 1.534-4.597.965-1.135 2.37-1.85 4.178-1.85 2.328 0 4.359 1.136 5.505 2.898z" stroke="red" stroke-width="1.5"/><circle cx="9.811" cy="9.983" r="8.967" fill="#FBFCFF" stroke="red" stroke-width="1.5"/><path d="M9.813 14.234v-6.68" stroke="red" stroke-width="1.5" stroke-linecap="round"/><path d="M6.168 9.983l3.644-3.644 3.644 3.644" stroke="red" stroke-width="1.5" stroke-linecap="round" stroke-linejoin="round"/></svg>