<svg width="28" height="23" fill="none" xmlns="http://www.w3.org/2000/svg"><path d="M17.43 6.286l3.214-3.215 2.143 2.143L26 2" stroke="#457CE9" stroke-width="2.143" stroke-linecap="round" stroke-linejoin="round"/><circle cx="11.428" cy="12.284" r="4.071" stroke="#457CE9" stroke-width="2.143"/><path d="M20.857 10.574v3.143c0 2.8 0 4.2-.545 5.27a5 5 0 01-2.185 2.185c-1.07.544-2.47.544-5.27.544H10c-2.8 0-4.2 0-5.27-.544a5 5 0 01-2.185-2.186C2 17.916 2 16.517 2 13.716V10.86c0-2.8 0-4.2.545-5.27A5 5 0 014.73 3.404C5.8 2.86 7.2 2.86 10 2.86h3.143" stroke="#457CE9" stroke-width="2.143" stroke-linecap="round"/></svg>