<svg width="33" height="33" fill="none" xmlns="http://www.w3.org/2000/svg"><path fill-rule="evenodd" clip-rule="evenodd" d="M4.666 15.695c1.433-5.086 6.19-8.821 11.836-8.821s10.403 3.735 11.836 8.821a2.97 2.97 0 010 1.61c-1.433 5.086-6.19 8.821-11.836 8.821-5.647 0-10.403-3.735-11.836-8.821a2.97 2.97 0 010-1.61zm15.626.805a3.79 3.79 0 11-7.58 0 3.79 3.79 0 017.58 0zm1.5 0a5.29 5.29 0 11-10.58 0 5.29 5.29 0 0110.58 0z" fill="red"/><path fill-rule="evenodd" clip-rule="evenodd" d="M16.502 8.374c-4.975 0-9.141 3.29-10.392 7.728a1.47 1.47 0 000 .796c1.25 4.439 5.417 7.728 10.392 7.728s9.141-3.29 10.392-7.728a1.47 1.47 0 000-.796c-1.25-4.439-5.417-7.728-10.392-7.728zm5.29 8.126a5.29 5.29 0 11-10.58 0 5.29 5.29 0 0110.58 0zm-5.29 2.29a2.29 2.29 0 100-4.58 2.29 2.29 0 000 4.58zm6.79-2.29a6.79 6.79 0 11-13.58 0 6.79 6.79 0 0113.58 0zm-6.79 3.79a3.79 3.79 0 100-7.58 3.79 3.79 0 000 7.58zm0-13.416c-5.647 0-10.403 3.735-11.836 8.821a2.97 2.97 0 000 1.61c1.433 5.086 6.19 8.821 11.836 8.821s10.403-3.735 11.836-8.821a2.97 2.97 0 000-1.61c-1.433-5.086-6.19-8.821-11.836-8.821z" fill="red"/></svg>